<svg width="24" height="24" viewBox="0 0 24 24" fill="none" xmlns="http://www.w3.org/2000/svg">
<g clip-path="url(#clip0_32005_1423)">
<path d="M6.74575 12.7244H9.18167V22.7527C9.18167 22.9507 9.3421 23.1111 9.54009 23.1111H13.6703C13.8683 23.1111 14.0287 22.9507 14.0287 22.7527V12.7717H16.829C17.0111 12.7717 17.1642 12.6351 17.185 12.4542L17.6103 8.76229C17.622 8.66072 17.5898 8.559 17.5219 8.4828C17.4539 8.40652 17.3565 8.36287 17.2544 8.36287H14.0288V6.0486C14.0288 5.35097 14.4045 4.9972 15.1454 4.9972C15.251 4.9972 17.2544 4.9972 17.2544 4.9972C17.4523 4.9972 17.6128 4.8367 17.6128 4.63878V1.24996C17.6128 1.05197 17.4523 0.891542 17.2544 0.891542H14.3479C14.3274 0.890538 14.2819 0.888889 14.2148 0.888889C13.7105 0.888889 11.9576 0.987886 10.5729 2.26172C9.03873 3.67333 9.25199 5.36351 9.30296 5.65656V8.3628H6.74575C6.54776 8.3628 6.38733 8.52323 6.38733 8.72122V12.3659C6.38733 12.5639 6.54776 12.7244 6.74575 12.7244Z" fill="currentColor"/>
</g>
<defs>
<clipPath id="clip0_32005_1423">
<rect width="22.2222" height="22.2222" fill="currentColor" transform="translate(0.888916 0.888889)"/>
</clipPath>
</defs>
</svg>
