<svg width="24" height="24" viewBox="0 0 24 24" fill="none" xmlns="http://www.w3.org/2000/svg">
<g clip-path="url(#clip0_32005_1417)">
<path d="M17.0958 0.888889H6.90426C3.58734 0.888889 0.888916 3.58732 0.888916 6.90423V17.0959C0.888916 20.4126 3.58734 23.1111 6.90426 23.1111H17.0959C20.4127 23.1111 23.1111 20.4126 23.1111 17.0959V6.90423C23.1111 3.58732 20.4127 0.888889 17.0958 0.888889ZM12 18.0762C8.64952 18.0762 5.9238 15.3505 5.9238 12C5.9238 8.64949 8.64952 5.92377 12 5.92377C15.3505 5.92377 18.0762 8.64949 18.0762 12C18.0762 15.3505 15.3505 18.0762 12 18.0762ZM18.2215 7.35674C17.2314 7.35674 16.4261 6.55141 16.4261 5.56129C16.4261 4.57117 17.2314 3.76567 18.2215 3.76567C19.2116 3.76567 20.0171 4.57117 20.0171 5.56129C20.0171 6.55141 19.2116 7.35674 18.2215 7.35674Z" fill="currentColor"/>
<path d="M12 7.22653C9.36804 7.22653 7.22656 9.36784 7.22656 12C7.22656 14.6319 9.36804 16.7734 12 16.7734C14.6321 16.7734 16.7735 14.6319 16.7735 12C16.7735 9.36784 14.6321 7.22653 12 7.22653Z" fill="currentColor"/>
<path d="M18.2216 5.0686C17.95 5.0686 17.7289 5.28969 17.7289 5.56129C17.7289 5.8329 17.95 6.05398 18.2216 6.05398C18.4933 6.05398 18.7144 5.83307 18.7144 5.56129C18.7144 5.28952 18.4933 5.0686 18.2216 5.0686Z" fill="currentColor"/>
</g>
<defs>
<clipPath id="clip0_32005_1417">
<rect width="22.2222" height="22.2222" fill="currentColor" transform="translate(0.888916 0.888889)"/>
</clipPath>
</defs>
</svg>
