<svg width="24" height="24" viewBox="0 0 24 24" fill="none" xmlns="http://www.w3.org/2000/svg">
<g clip-path="url(#clip0_32005_1428)">
<path d="M21.0597 5.77018C18.7271 5.77018 16.8295 3.87249 16.8295 1.53993C16.8295 1.18033 16.538 0.888889 16.1784 0.888889H12.6916C12.3322 0.888889 12.0406 1.18033 12.0406 1.53993V15.8354C12.0406 17.2066 10.9248 18.3222 9.55356 18.3222C8.1823 18.3222 7.06672 17.2066 7.06672 15.8354C7.06672 14.464 8.1823 13.3484 9.55356 13.3484C9.91316 13.3484 10.2046 13.0569 10.2046 12.6973V9.21052C10.2046 8.85109 9.91316 8.55948 9.55356 8.55948C5.54169 8.55948 2.27783 11.8235 2.27783 15.8354C2.27783 19.8473 5.54169 23.1111 9.55356 23.1111C13.5654 23.1111 16.8295 19.8473 16.8295 15.8354V9.50756C18.1251 10.1984 19.5671 10.5591 21.0597 10.5591C21.4193 10.5591 21.7107 10.2676 21.7107 9.90802V6.42122C21.7107 6.06179 21.4193 5.77018 21.0597 5.77018Z" fill="currentColor"/>
</g>
<defs>
<clipPath id="clip0_32005_1428">
<rect width="22.2222" height="22.2222" fill="currentColor" transform="translate(0.888916 0.888889)"/>
</clipPath>
</defs>
</svg>
