<svg width="24" height="24" viewBox="0 0 24 24" fill="none" xmlns="http://www.w3.org/2000/svg">
<g clip-path="url(#clip0_32005_1432)">
<path d="M22.9477 7.55239L22.9466 7.54222C22.9278 7.36335 22.7405 5.7722 21.967 4.96315C21.073 4.01134 20.0595 3.89571 19.5721 3.84027C19.5317 3.83553 19.4948 3.83146 19.4617 3.82705L19.4229 3.82298C16.4851 3.60936 12.0483 3.5802 12.0039 3.57986H11.9961C11.9517 3.5802 7.51495 3.60936 4.55068 3.82298L4.51151 3.82705C4.47998 3.83129 4.44522 3.83519 4.40742 3.83959C3.92558 3.8952 2.92291 4.011 2.02637 4.99706C1.28971 5.7978 1.07677 7.3547 1.0549 7.52967L1.05235 7.55239C1.04574 7.62682 0.888916 9.3987 0.888916 11.1775V12.8404C0.888916 14.6192 1.04574 16.3911 1.05235 16.4655L1.05354 16.4769C1.07236 16.6527 1.25953 18.2145 2.02942 19.0241C2.87001 19.9442 3.93287 20.0658 4.50456 20.1312C4.59493 20.1415 4.67292 20.1505 4.72582 20.1599L4.77719 20.1668C6.47345 20.3284 11.7918 20.4079 12.0173 20.4111L12.0241 20.4113L12.0307 20.4111C12.0753 20.4109 16.5119 20.3818 19.4497 20.168L19.4885 20.1641C19.5255 20.1592 19.5672 20.1548 19.6129 20.15C20.0922 20.0992 21.0893 19.9935 21.9736 19.0209C22.7103 18.2201 22.9232 16.6632 22.9451 16.4883L22.9477 16.4655C22.9543 16.3911 23.1111 14.6192 23.1111 12.8404V11.1775C23.1111 9.3987 22.9543 7.62699 22.9477 7.55239ZM15.4147 12.5868L10.5053 15.2267C10.3705 15.2993 10.2241 15.3354 10.0779 15.3354C9.91837 15.3354 9.75917 15.2923 9.61557 15.2067C9.34057 15.0422 9.17646 14.7528 9.17646 14.4326V9.10624C9.17646 8.78445 9.34159 8.49453 9.61828 8.33042C9.89497 8.16647 10.2288 8.16054 10.5111 8.31499L15.4205 11.0014C15.7109 11.1602 15.8906 11.4647 15.8895 11.7959C15.8883 12.1268 15.7064 12.4299 15.4147 12.5868Z" fill="currentColor"/>
</g>
<defs>
<clipPath id="clip0_32005_1432">
<rect width="22.2222" height="22.2222" fill="currentColor" transform="translate(0.888916 0.888889)"/>
</clipPath>
</defs>
</svg>
